<svg width="214" height="96" viewBox="0 0 214 96" fill="none" xmlns="http://www.w3.org/2000/svg">
  <mask id="mask0_322_270" style="mask-type:alpha" maskUnits="userSpaceOnUse" x="0" y="50" width="214" height="46">
    <ellipse cx="107" cy="73" rx="107" ry="23" fill="white" />
  </mask>
  <g mask="url(#mask0_322_270)">
    <path d="M137.334 88.7832V106.625H70C70.7292 99.8802 72.9167 93.5 76.5625 87.4844C80.2083 81.4232 87.4089 73.4023 98.1641 63.4219C106.823 55.3555 112.132 49.8867 114.092 47.0156C116.735 43.0508 118.057 39.1315 118.057 35.2578C118.057 30.974 116.895 27.6927 114.57 25.4141C112.292 23.0898 109.124 21.9277 105.068 21.9277C101.058 21.9277 97.8678 23.1354 95.498 25.5508C93.1283 27.9661 91.7611 31.9766 91.3965 37.582L72.2559 35.668C73.3952 25.0951 76.9727 17.5072 82.9883 12.9043C89.0039 8.30143 96.5234 6 105.547 6C115.436 6 123.206 8.66602 128.857 13.998C134.508 19.3301 137.334 25.9609 137.334 33.8906C137.334 38.4023 136.514 42.709 134.873 46.8105C133.278 50.8665 130.726 55.1276 127.217 59.5938C124.893 62.556 120.7 66.8171 114.639 72.377C108.577 77.9369 104.727 81.6283 103.086 83.4512C101.491 85.2741 100.192 87.0514 99.1895 88.7832H137.334Z" fill="#70A72F" />
  </g>
  <mask id="mask1_322_270" style="mask-type:alpha" maskUnits="userSpaceOnUse" x="50" y="0" width="108" height="91">
    <rect x="50" width="108" height="91" fill="#D9D9D9" />
  </mask>
  <g mask="url(#mask1_322_270)">
    <path d="M137.334 88.7832V106.625H70C70.7292 99.8802 72.9167 93.5 76.5625 87.4844C80.2083 81.4232 87.4089 73.4023 98.1641 63.4219C106.823 55.3555 112.132 49.8867 114.092 47.0156C116.735 43.0508 118.057 39.1315 118.057 35.2578C118.057 30.974 116.895 27.6927 114.57 25.4141C112.292 23.0898 109.124 21.9277 105.068 21.9277C101.058 21.9277 97.8678 23.1354 95.498 25.5508C93.1283 27.9661 91.7611 31.9766 91.3965 37.582L72.2559 35.668C73.3952 25.0951 76.9727 17.5072 82.9883 12.9043C89.0039 8.30143 96.5234 6 105.547 6C115.436 6 123.206 8.66602 128.857 13.998C134.508 19.3301 137.334 25.9609 137.334 33.8906C137.334 38.4023 136.514 42.709 134.873 46.8105C133.278 50.8665 130.726 55.1276 127.217 59.5938C124.893 62.556 120.7 66.8171 114.639 72.377C108.577 77.9369 104.727 81.6283 103.086 83.4512C101.491 85.2741 100.192 87.0514 99.1895 88.7832H137.334Z" fill="#70A72F" />
  </g>
</svg>
