<svg width="214" height="96" viewBox="0 0 214 96" fill="none" xmlns="http://www.w3.org/2000/svg">
  <mask id="mask0_2010_2" style="mask-type:alpha" maskUnits="userSpaceOnUse" x="0" y="50" width="214" height="46">
    <ellipse cx="107" cy="73" rx="107" ry="23" fill="white" />
  </mask>
  <g mask="url(#mask0_2010_2)">
    <path d="M74 76.0332L92.5938 73.7773C93.1862 78.5169 94.7812 82.14 97.3789 84.6465C99.9766 87.153 103.121 88.4062 106.812 88.4062C110.777 88.4062 114.104 86.9023 116.793 83.8945C119.527 80.8867 120.895 76.8307 120.895 71.7266C120.895 66.8958 119.596 63.0677 116.998 60.2422C114.4 57.4167 111.233 56.0039 107.496 56.0039C105.035 56.0039 102.096 56.4824 98.6777 57.4395L100.797 41.7852C105.992 41.9219 109.957 40.8053 112.691 38.4355C115.426 36.0202 116.793 32.8301 116.793 28.8652C116.793 25.4928 115.79 22.804 113.785 20.7988C111.78 18.7936 109.114 17.791 105.787 17.791C102.506 17.791 99.7031 18.9303 97.3789 21.209C95.0547 23.4876 93.6419 26.8145 93.1406 31.1895L75.4355 28.1816C76.666 22.1204 78.5117 17.2897 80.9727 13.6895C83.4792 10.0436 86.9427 7.19531 91.3633 5.14453C95.8294 3.04818 100.82 2 106.334 2C115.768 2 123.333 5.00781 129.029 11.0234C133.723 15.9453 136.07 21.5052 136.07 27.7031C136.07 36.4987 131.262 43.5169 121.646 48.7578C127.389 49.9883 131.969 52.7454 135.387 57.0293C138.85 61.3132 140.582 66.4857 140.582 72.5469C140.582 81.3424 137.369 88.8392 130.943 95.0371C124.518 101.235 116.52 104.334 106.949 104.334C97.8802 104.334 90.3607 101.736 84.3906 96.541C78.4206 91.3001 74.957 84.4642 74 76.0332Z" fill="#70A72F" />
  </g>
  <mask id="mask1_2010_2" style="mask-type:alpha" maskUnits="userSpaceOnUse" x="50" y="0" width="108" height="91">
    <rect x="50" width="108" height="91" fill="#D9D9D9" />
  </mask>
  <g mask="url(#mask1_2010_2)">
    <path d="M74 76.0332L92.5938 73.7773C93.1862 78.5169 94.7812 82.14 97.3789 84.6465C99.9766 87.153 103.121 88.4062 106.812 88.4062C110.777 88.4062 114.104 86.9023 116.793 83.8945C119.527 80.8867 120.895 76.8307 120.895 71.7266C120.895 66.8958 119.596 63.0677 116.998 60.2422C114.4 57.4167 111.233 56.0039 107.496 56.0039C105.035 56.0039 102.096 56.4824 98.6777 57.4395L100.797 41.7852C105.992 41.9219 109.957 40.8053 112.691 38.4355C115.426 36.0202 116.793 32.8301 116.793 28.8652C116.793 25.4928 115.79 22.804 113.785 20.7988C111.78 18.7936 109.114 17.791 105.787 17.791C102.506 17.791 99.7031 18.9303 97.3789 21.209C95.0547 23.4876 93.6419 26.8145 93.1406 31.1895L75.4355 28.1816C76.666 22.1204 78.5117 17.2897 80.9727 13.6895C83.4792 10.0436 86.9427 7.19531 91.3633 5.14453C95.8294 3.04818 100.82 2 106.334 2C115.768 2 123.333 5.00781 129.029 11.0234C133.723 15.9453 136.07 21.5052 136.07 27.7031C136.07 36.4987 131.262 43.5169 121.646 48.7578C127.389 49.9883 131.969 52.7454 135.387 57.0293C138.85 61.3132 140.582 66.4857 140.582 72.5469C140.582 81.3424 137.369 88.8392 130.943 95.0371C124.518 101.235 116.52 104.334 106.949 104.334C97.8802 104.334 90.3607 101.736 84.3906 96.541C78.4206 91.3001 74.957 84.4642 74 76.0332Z" fill="#70A72F" />
  </g>
</svg>
