<svg width="214" height="106" viewBox="0 0 214 106" fill="none" xmlns="http://www.w3.org/2000/svg">
<mask id="mask0_2010_4" style="mask-type:alpha" maskUnits="userSpaceOnUse" x="53" y="0" width="101" height="95">
<rect x="53" width="101" height="95" fill="#D9D9D9"/>
</mask>
<g mask="url(#mask0_2010_4)">
<path d="M74.2207 87.2285L93.3613 85.2461C93.9082 89.5755 95.526 93.0163 98.2148 95.5684C100.904 98.0749 104.003 99.3281 107.512 99.3281C111.522 99.3281 114.917 97.7103 117.697 94.4746C120.477 91.1934 121.867 86.2715 121.867 79.709C121.867 73.5566 120.477 68.9538 117.697 65.9004C114.963 62.8014 111.385 61.252 106.965 61.252C101.451 61.252 96.5059 63.6901 92.1309 68.5664L76.5449 66.3105L86.3887 14.1523H137.18V32.1309H100.949L97.9414 49.1523C102.225 47.0104 106.6 45.9395 111.066 45.9395C119.589 45.9395 126.812 49.0384 132.736 55.2363C138.661 61.4342 141.623 69.4779 141.623 79.3672C141.623 87.6159 139.23 94.9759 134.445 101.447C127.928 110.288 118.882 114.709 107.307 114.709C98.0553 114.709 90.513 112.225 84.6797 107.258C78.8464 102.29 75.36 95.6139 74.2207 87.2285Z" fill="#70A72F"/>
</g>
<mask id="mask1_2010_4" style="mask-type:alpha" maskUnits="userSpaceOnUse" x="0" y="60" width="214" height="46">
<path d="M213 83C213 84.2503 212.415 85.5663 211.102 86.9458C209.784 88.3297 207.791 89.7128 205.138 91.0612C199.835 93.7562 192.096 96.2123 182.45 98.2858C163.175 102.429 136.498 105 107 105C77.5016 105 50.8254 102.429 31.5497 98.2858C21.9037 96.2123 14.1648 93.7562 8.86165 91.0612C6.20858 89.7128 4.21561 88.3297 2.89815 86.9458C1.58488 85.5663 1 84.2503 1 83C1 81.7497 1.58488 80.4337 2.89815 79.0542C4.21561 77.6703 6.20858 76.2872 8.86165 74.9388C14.1648 72.2438 21.9037 69.7877 31.5497 67.7142C50.8254 63.5709 77.5016 61 107 61C136.498 61 163.175 63.5709 182.45 67.7142C192.096 69.7877 199.835 72.2438 205.138 74.9388C207.791 76.2872 209.784 77.6703 211.102 79.0542C212.415 80.4337 213 81.7497 213 83Z" fill="#7DA543" stroke="#70A72F" stroke-width="2"/>
</mask>
<g mask="url(#mask1_2010_4)">
<path d="M74.2207 87.2285L93.3613 85.2461C93.9082 89.5755 95.526 93.0163 98.2148 95.5684C100.904 98.0749 104.003 99.3281 107.512 99.3281C111.522 99.3281 114.917 97.7103 117.697 94.4746C120.477 91.1934 121.867 86.2715 121.867 79.709C121.867 73.5566 120.477 68.9538 117.697 65.9004C114.963 62.8014 111.385 61.252 106.965 61.252C101.451 61.252 96.5059 63.6901 92.1309 68.5664L76.5449 66.3105L86.3887 14.1523H137.18V32.1309H100.949L97.9414 49.1523C102.225 47.0104 106.6 45.9395 111.066 45.9395C119.589 45.9395 126.812 49.0384 132.736 55.2363C138.661 61.4342 141.623 69.4779 141.623 79.3672C141.623 87.6159 139.23 94.9759 134.445 101.447C127.928 110.288 118.882 114.709 107.307 114.709C98.0553 114.709 90.513 112.225 84.6797 107.258C78.8464 102.29 75.36 95.6139 74.2207 87.2285Z" fill="#70A72F"/>
</g>
</svg>
