<svg width="214" height="106" viewBox="0 0 214 106" fill="none" xmlns="http://www.w3.org/2000/svg">
<mask id="mask0_2010_5" style="mask-type:alpha" maskUnits="userSpaceOnUse" x="53" y="0" width="101" height="95">
<rect x="53" width="101" height="95" fill="#D9D9D9"/>
</mask>
<g mask="url(#mask0_2010_5)">
<path d="M139.025 37.3262L120.432 39.377C119.976 35.5488 118.791 32.7233 116.877 30.9004C114.963 29.0775 112.479 28.166 109.426 28.166C105.37 28.166 101.929 29.9889 99.1035 33.6348C96.3236 37.2806 94.569 44.8685 93.8398 56.3984C98.625 50.7474 104.572 47.9219 111.682 47.9219C119.702 47.9219 126.561 50.9753 132.258 57.082C138 63.1888 140.871 71.0729 140.871 80.7344C140.871 90.9883 137.863 99.2142 131.848 105.412C125.832 111.61 118.107 114.709 108.674 114.709C98.5566 114.709 90.2396 110.79 83.7227 102.951C77.2057 95.0671 73.9473 82.1699 73.9473 64.2598C73.9473 45.8939 77.3424 32.6549 84.1328 24.543C90.9232 16.431 99.7415 12.375 110.588 12.375C118.199 12.375 124.488 14.5169 129.455 18.8008C134.468 23.0391 137.658 29.2142 139.025 37.3262ZM95.4805 79.2305C95.4805 85.474 96.916 90.3047 99.7871 93.7227C102.658 97.0951 105.939 98.7812 109.631 98.7812C113.186 98.7812 116.148 97.3913 118.518 94.6113C120.887 91.8314 122.072 87.2741 122.072 80.9395C122.072 74.4225 120.796 69.6602 118.244 66.6523C115.692 63.599 112.502 62.0723 108.674 62.0723C104.982 62.0723 101.861 63.5306 99.3086 66.4473C96.7565 69.3184 95.4805 73.5794 95.4805 79.2305Z" fill="#70A72F"/>
</g>
<mask id="mask1_2010_5" style="mask-type:alpha" maskUnits="userSpaceOnUse" x="0" y="60" width="214" height="46">
<path d="M213 83C213 84.2503 212.415 85.5663 211.102 86.9458C209.784 88.3297 207.791 89.7128 205.138 91.0612C199.835 93.7562 192.096 96.2123 182.45 98.2858C163.175 102.429 136.498 105 107 105C77.5016 105 50.8254 102.429 31.5497 98.2858C21.9037 96.2123 14.1648 93.7562 8.86165 91.0612C6.20858 89.7128 4.21561 88.3297 2.89815 86.9458C1.58488 85.5663 1 84.2503 1 83C1 81.7497 1.58488 80.4337 2.89815 79.0542C4.21561 77.6703 6.20858 76.2872 8.86165 74.9388C14.1648 72.2438 21.9037 69.7877 31.5497 67.7142C50.8254 63.5709 77.5016 61 107 61C136.498 61 163.175 63.5709 182.45 67.7142C192.096 69.7877 199.835 72.2438 205.138 74.9388C207.791 76.2872 209.784 77.6703 211.102 79.0542C212.415 80.4337 213 81.7497 213 83Z" fill="#7DA543" stroke="#70A72F" stroke-width="2"/>
</mask>
<g mask="url(#mask1_2010_5)">
<path d="M139.025 37.3262L120.432 39.377C119.976 35.5488 118.791 32.7233 116.877 30.9004C114.963 29.0775 112.479 28.166 109.426 28.166C105.37 28.166 101.929 29.9889 99.1035 33.6348C96.3236 37.2806 94.569 44.8685 93.8398 56.3984C98.625 50.7474 104.572 47.9219 111.682 47.9219C119.702 47.9219 126.561 50.9753 132.258 57.082C138 63.1888 140.871 71.0729 140.871 80.7344C140.871 90.9883 137.863 99.2142 131.848 105.412C125.832 111.61 118.107 114.709 108.674 114.709C98.5566 114.709 90.2396 110.79 83.7227 102.951C77.2057 95.0671 73.9473 82.1699 73.9473 64.2598C73.9473 45.8939 77.3424 32.6549 84.1328 24.543C90.9232 16.431 99.7415 12.375 110.588 12.375C118.199 12.375 124.488 14.5169 129.455 18.8008C134.468 23.0391 137.658 29.2142 139.025 37.3262ZM95.4805 79.2305C95.4805 85.474 96.916 90.3047 99.7871 93.7227C102.658 97.0951 105.939 98.7812 109.631 98.7812C113.186 98.7812 116.148 97.3913 118.518 94.6113C120.887 91.8314 122.072 87.2741 122.072 80.9395C122.072 74.4225 120.796 69.6602 118.244 66.6523C115.692 63.599 112.502 62.0723 108.674 62.0723C104.982 62.0723 101.861 63.5306 99.3086 66.4473C96.7565 69.3184 95.4805 73.5794 95.4805 79.2305Z" fill="#70A72F"/>
</g>
</svg>
