<svg width="214" height="106" viewBox="0 0 214 106" fill="none" xmlns="http://www.w3.org/2000/svg">
<mask id="mask0_2010_6" style="mask-type:alpha" maskUnits="userSpaceOnUse" x="53" y="0" width="101" height="95">
<rect x="53" width="101" height="95" fill="#D9D9D9"/>
</mask>
<g mask="url(#mask0_2010_6)">
<path d="M73.9473 31.9941V14.1523H139.641V28.0977C134.217 33.4297 128.703 41.0859 123.098 51.0664C117.492 61.0469 113.208 71.6654 110.246 82.9219C107.329 94.1328 105.894 104.159 105.939 113H87.4141C87.7331 99.1458 90.5814 85.0182 95.959 70.6172C101.382 56.2161 108.605 43.3418 117.629 31.9941H73.9473Z" fill="#70A72F"/>
</g>
<mask id="mask1_2010_6" style="mask-type:alpha" maskUnits="userSpaceOnUse" x="0" y="60" width="214" height="46">
<path d="M213 83C213 84.2503 212.415 85.5663 211.102 86.9458C209.784 88.3297 207.791 89.7128 205.138 91.0612C199.835 93.7562 192.096 96.2123 182.45 98.2858C163.175 102.429 136.498 105 107 105C77.5016 105 50.8254 102.429 31.5497 98.2858C21.9037 96.2123 14.1648 93.7562 8.86165 91.0612C6.20858 89.7128 4.21561 88.3297 2.89815 86.9458C1.58488 85.5663 1 84.2503 1 83C1 81.7497 1.58488 80.4337 2.89815 79.0542C4.21561 77.6703 6.20858 76.2872 8.86165 74.9388C14.1648 72.2438 21.9037 69.7877 31.5497 67.7142C50.8254 63.5709 77.5016 61 107 61C136.498 61 163.175 63.5709 182.45 67.7142C192.096 69.7877 199.835 72.2438 205.138 74.9388C207.791 76.2872 209.784 77.6703 211.102 79.0542C212.415 80.4337 213 81.7497 213 83Z" fill="#7DA543" stroke="#70A72F" stroke-width="2"/>
</mask>
<g mask="url(#mask1_2010_6)">
<path d="M73.9473 31.9941V14.1523H139.641V28.0977C134.217 33.4297 128.703 41.0859 123.098 51.0664C117.492 61.0469 113.208 71.6654 110.246 82.9219C107.329 94.1328 105.894 104.159 105.939 113H87.4141C87.7331 99.1458 90.5814 85.0182 95.959 70.6172C101.382 56.2161 108.605 43.3418 117.629 31.9941H73.9473Z" fill="#70A72F"/>
</g>
</svg>
