<svg width="214" height="106" viewBox="0 0 214 106" fill="none" xmlns="http://www.w3.org/2000/svg">
<mask id="mask0_2010_7" style="mask-type:alpha" maskUnits="userSpaceOnUse" x="53" y="0" width="101" height="95">
<rect x="53" width="101" height="95" fill="#D9D9D9"/>
</mask>
<g mask="url(#mask0_2010_7)">
<path d="M90.4219 58.9277C85.4544 56.8314 81.8314 53.9603 79.5527 50.3145C77.3197 46.623 76.2031 42.5898 76.2031 38.2148C76.2031 30.7409 78.8008 24.5658 83.9961 19.6895C89.237 14.8132 96.6654 12.375 106.281 12.375C115.806 12.375 123.189 14.8132 128.43 19.6895C133.716 24.5658 136.359 30.7409 136.359 38.2148C136.359 42.8633 135.152 47.0104 132.736 50.6562C130.321 54.2565 126.926 57.0137 122.551 58.9277C128.111 61.1608 132.326 64.4193 135.197 68.7031C138.114 72.987 139.572 77.9316 139.572 83.5371C139.572 92.7884 136.61 100.308 130.686 106.096C124.807 111.883 116.968 114.777 107.17 114.777C98.0553 114.777 90.4674 112.385 84.4062 107.6C77.2513 101.949 73.6738 94.2012 73.6738 84.3574C73.6738 78.9342 75.0182 73.9668 77.707 69.4551C80.3958 64.8978 84.6341 61.3887 90.4219 58.9277ZM94.3867 39.582C94.3867 43.4102 95.4577 46.3952 97.5996 48.5371C99.7871 50.679 102.681 51.75 106.281 51.75C109.927 51.75 112.844 50.679 115.031 48.5371C117.219 46.3496 118.312 43.3418 118.312 39.5137C118.312 35.9134 117.219 33.0423 115.031 30.9004C112.889 28.7129 110.041 27.6191 106.486 27.6191C102.795 27.6191 99.8555 28.7129 97.668 30.9004C95.4805 33.0879 94.3867 35.9818 94.3867 39.582ZM92.6094 82.5117C92.6094 87.7982 93.9538 91.9225 96.6426 94.8848C99.377 97.847 102.772 99.3281 106.828 99.3281C110.793 99.3281 114.074 97.9154 116.672 95.0898C119.27 92.2188 120.568 88.0944 120.568 82.7168C120.568 78.0228 119.247 74.263 116.604 71.4375C113.96 68.5664 110.611 67.1309 106.555 67.1309C101.861 67.1309 98.3516 68.7487 96.0273 71.9844C93.7487 75.2201 92.6094 78.7292 92.6094 82.5117Z" fill="#70A72F"/>
</g>
<mask id="mask1_2010_7" style="mask-type:alpha" maskUnits="userSpaceOnUse" x="0" y="60" width="214" height="46">
<path d="M213 83C213 84.2503 212.415 85.5663 211.102 86.9458C209.784 88.3297 207.791 89.7128 205.138 91.0612C199.835 93.7562 192.096 96.2123 182.45 98.2858C163.175 102.429 136.498 105 107 105C77.5016 105 50.8254 102.429 31.5497 98.2858C21.9037 96.2123 14.1648 93.7562 8.86165 91.0612C6.20858 89.7128 4.21561 88.3297 2.89815 86.9458C1.58488 85.5663 1 84.2503 1 83C1 81.7497 1.58488 80.4337 2.89815 79.0542C4.21561 77.6703 6.20858 76.2872 8.86165 74.9388C14.1648 72.2438 21.9037 69.7877 31.5497 67.7142C50.8254 63.5709 77.5016 61 107 61C136.498 61 163.175 63.5709 182.45 67.7142C192.096 69.7877 199.835 72.2438 205.138 74.9388C207.791 76.2872 209.784 77.6703 211.102 79.0542C212.415 80.4337 213 81.7497 213 83Z" fill="#7DA543" stroke="#70A72F" stroke-width="2"/>
</mask>
<g mask="url(#mask1_2010_7)">
<path d="M90.4219 58.9277C85.4544 56.8314 81.8314 53.9603 79.5527 50.3145C77.3197 46.623 76.2031 42.5898 76.2031 38.2148C76.2031 30.7409 78.8008 24.5658 83.9961 19.6895C89.237 14.8132 96.6654 12.375 106.281 12.375C115.806 12.375 123.189 14.8132 128.43 19.6895C133.716 24.5658 136.359 30.7409 136.359 38.2148C136.359 42.8633 135.152 47.0104 132.736 50.6562C130.321 54.2565 126.926 57.0137 122.551 58.9277C128.111 61.1608 132.326 64.4193 135.197 68.7031C138.114 72.987 139.572 77.9316 139.572 83.5371C139.572 92.7884 136.61 100.308 130.686 106.096C124.807 111.883 116.968 114.777 107.17 114.777C98.0553 114.777 90.4674 112.385 84.4062 107.6C77.2513 101.949 73.6738 94.2012 73.6738 84.3574C73.6738 78.9342 75.0182 73.9668 77.707 69.4551C80.3958 64.8978 84.6341 61.3887 90.4219 58.9277ZM94.3867 39.582C94.3867 43.4102 95.4577 46.3952 97.5996 48.5371C99.7871 50.679 102.681 51.75 106.281 51.75C109.927 51.75 112.844 50.679 115.031 48.5371C117.219 46.3496 118.312 43.3418 118.312 39.5137C118.312 35.9134 117.219 33.0423 115.031 30.9004C112.889 28.7129 110.041 27.6191 106.486 27.6191C102.795 27.6191 99.8555 28.7129 97.668 30.9004C95.4805 33.0879 94.3867 35.9818 94.3867 39.582ZM92.6094 82.5117C92.6094 87.7982 93.9538 91.9225 96.6426 94.8848C99.377 97.847 102.772 99.3281 106.828 99.3281C110.793 99.3281 114.074 97.9154 116.672 95.0898C119.27 92.2188 120.568 88.0944 120.568 82.7168C120.568 78.0228 119.247 74.263 116.604 71.4375C113.96 68.5664 110.611 67.1309 106.555 67.1309C101.861 67.1309 98.3516 68.7487 96.0273 71.9844C93.7487 75.2201 92.6094 78.7292 92.6094 82.5117Z" fill="#70A72F"/>
</g>
</svg>
