<svg width="214" height="96" viewBox="0 0 214 96" fill="none" xmlns="http://www.w3.org/2000/svg"><mask id="a" style="mask-type:alpha" maskUnits="userSpaceOnUse" x="0" y="50" width="214" height="46"><ellipse cx="107" cy="73" rx="107" ry="23" fill="#fff"/></mask><g mask="url(#a)"><path d="M137.334 88.783v17.842H70c.73-6.745 2.917-13.125 6.563-19.14 3.645-6.062 10.846-14.083 21.601-24.063 8.659-8.066 13.968-13.535 15.928-16.406 2.643-3.965 3.965-7.884 3.965-11.758 0-4.284-1.162-7.565-3.487-9.844-2.278-2.324-5.446-3.486-9.502-3.486-4.01 0-7.2 1.207-9.57 3.623-2.37 2.415-3.737 6.426-4.102 12.031l-19.14-1.914c1.14-10.573 4.717-18.16 10.732-22.764C89.004 8.301 96.523 6 105.547 6c9.889 0 17.659 2.666 23.31 7.998 5.651 5.332 8.477 11.963 8.477 19.893 0 4.511-.82 8.818-2.461 12.92-1.595 4.056-4.147 8.317-7.656 12.783-2.324 2.962-6.517 7.223-12.578 12.783-6.062 5.56-9.912 9.251-11.553 11.074-1.595 1.823-2.894 3.6-3.897 5.332h38.145Z" fill="#70A72F"/></g><mask id="b" style="mask-type:alpha" maskUnits="userSpaceOnUse" x="50" y="0" width="108" height="91"><path fill="#D9D9D9" d="M50 0h108v91H50z"/></mask><g mask="url(#b)"><path d="M137.334 88.783v17.842H70c.73-6.745 2.917-13.125 6.563-19.14 3.645-6.062 10.846-14.083 21.601-24.063 8.659-8.066 13.968-13.535 15.928-16.406 2.643-3.965 3.965-7.884 3.965-11.758 0-4.284-1.162-7.565-3.487-9.844-2.278-2.324-5.446-3.486-9.502-3.486-4.01 0-7.2 1.207-9.57 3.623-2.37 2.415-3.737 6.426-4.102 12.031l-19.14-1.914c1.14-10.573 4.717-18.16 10.732-22.764C89.004 8.301 96.523 6 105.547 6c9.889 0 17.659 2.666 23.31 7.998 5.651 5.332 8.477 11.963 8.477 19.893 0 4.511-.82 8.818-2.461 12.92-1.595 4.056-4.147 8.317-7.656 12.783-2.324 2.962-6.517 7.223-12.578 12.783-6.062 5.56-9.912 9.251-11.553 11.074-1.595 1.823-2.894 3.6-3.897 5.332h38.145Z" fill="#70A72F"/></g></svg>