<svg width="214" height="96" viewBox="0 0 214 96" fill="none" xmlns="http://www.w3.org/2000/svg"><mask id="a" style="mask-type:alpha" maskUnits="userSpaceOnUse" x="0" y="50" width="214" height="46"><ellipse cx="107" cy="73" rx="107" ry="23" fill="#fff"/></mask><g mask="url(#a)"><path d="m74 76.033 18.594-2.256c.592 4.74 2.187 8.363 4.785 10.87 2.598 2.506 5.742 3.76 9.433 3.76 3.965 0 7.292-1.505 9.981-4.513 2.734-3.007 4.102-7.063 4.102-12.167 0-4.831-1.299-8.66-3.897-11.485-2.598-2.825-5.765-4.238-9.502-4.238-2.461 0-5.4.478-8.818 1.436l2.119-15.655c5.195.137 9.16-.98 11.894-3.35 2.735-2.415 4.102-5.605 4.102-9.57 0-3.372-1.003-6.061-3.008-8.066-2.005-2.005-4.671-3.008-7.998-3.008-3.281 0-6.084 1.14-8.408 3.418-2.324 2.279-3.737 5.605-4.238 9.98l-17.706-3.007c1.231-6.062 3.077-10.892 5.538-14.492 2.506-3.646 5.97-6.495 10.39-8.545C95.83 3.048 100.82 2 106.334 2c9.434 0 16.999 3.008 22.695 9.023 4.694 4.922 7.041 10.482 7.041 16.68 0 8.796-4.808 15.814-14.424 21.055 5.743 1.23 10.323 3.987 13.741 8.271 3.463 4.284 5.195 9.457 5.195 15.518 0 8.795-3.213 16.292-9.639 22.49-6.425 6.198-14.423 9.297-23.994 9.297-9.069 0-16.588-2.598-22.558-7.793-5.97-5.24-9.434-12.077-10.391-20.508Z" fill="#70A72F"/></g><mask id="b" style="mask-type:alpha" maskUnits="userSpaceOnUse" x="50" y="0" width="108" height="91"><path fill="#D9D9D9" d="M50 0h108v91H50z"/></mask><g mask="url(#b)"><path d="m74 76.033 18.594-2.256c.592 4.74 2.187 8.363 4.785 10.87 2.598 2.506 5.742 3.76 9.433 3.76 3.965 0 7.292-1.505 9.981-4.513 2.734-3.007 4.102-7.063 4.102-12.167 0-4.831-1.299-8.66-3.897-11.485-2.598-2.825-5.765-4.238-9.502-4.238-2.461 0-5.4.478-8.818 1.436l2.119-15.655c5.195.137 9.16-.98 11.894-3.35 2.735-2.415 4.102-5.605 4.102-9.57 0-3.372-1.003-6.061-3.008-8.066-2.005-2.005-4.671-3.008-7.998-3.008-3.281 0-6.084 1.14-8.408 3.418-2.324 2.279-3.737 5.605-4.238 9.98l-17.706-3.007c1.231-6.062 3.077-10.892 5.538-14.492 2.506-3.646 5.97-6.495 10.39-8.545C95.83 3.048 100.82 2 106.334 2c9.434 0 16.999 3.008 22.695 9.023 4.694 4.922 7.041 10.482 7.041 16.68 0 8.796-4.808 15.814-14.424 21.055 5.743 1.23 10.323 3.987 13.741 8.271 3.463 4.284 5.195 9.457 5.195 15.518 0 8.795-3.213 16.292-9.639 22.49-6.425 6.198-14.423 9.297-23.994 9.297-9.069 0-16.588-2.598-22.558-7.793-5.97-5.24-9.434-12.077-10.391-20.508Z" fill="#70A72F"/></g></svg>