<svg width="214" height="106" viewBox="0 0 214 106" fill="none" xmlns="http://www.w3.org/2000/svg"><mask id="a" style="mask-type:alpha" maskUnits="userSpaceOnUse" x="53" y="0" width="101" height="95"><path fill="#D9D9D9" d="M53 0h101v95H53z"/></mask><g mask="url(#a)"><path d="m74.22 87.228 19.141-1.982c.547 4.33 2.165 7.77 4.854 10.322 2.689 2.507 5.788 3.76 9.297 3.76 4.01 0 7.405-1.618 10.185-4.853 2.78-3.282 4.17-8.203 4.17-14.766 0-6.152-1.39-10.755-4.17-13.809-2.734-3.099-6.312-4.648-10.732-4.648-5.514 0-10.46 2.438-14.834 7.314l-15.586-2.255 9.844-52.159h50.791v17.979h-36.231l-3.008 17.021c4.284-2.142 8.659-3.212 13.125-3.212 8.523 0 15.746 3.098 21.67 9.296 5.925 6.198 8.887 14.242 8.887 24.131 0 8.249-2.393 15.609-7.178 22.08-6.517 8.841-15.563 13.262-27.138 13.262-9.252 0-16.794-2.484-22.627-7.451-5.834-4.968-9.32-11.644-10.46-20.03Z" fill="#70A72F"/></g><mask id="b" style="mask-type:alpha" maskUnits="userSpaceOnUse" x="0" y="60" width="214" height="46"><path d="M213 83c0 1.25-.585 2.566-1.898 3.946-1.318 1.384-3.311 2.767-5.964 4.115-5.303 2.695-13.042 5.151-22.688 7.225C163.175 102.429 136.498 105 107 105c-29.498 0-56.175-2.571-75.45-6.714-9.646-2.074-17.385-4.53-22.688-7.225-2.653-1.348-4.646-2.731-5.964-4.115C1.585 85.566 1 84.25 1 83s.585-2.566 1.898-3.946c1.318-1.384 3.31-2.767 5.964-4.115 5.303-2.695 13.042-5.151 22.688-7.225C50.825 63.571 77.502 61 107 61c29.498 0 56.175 2.57 75.45 6.714 9.646 2.074 17.385 4.53 22.688 7.225 2.653 1.348 4.646 2.731 5.964 4.115C212.415 80.434 213 81.75 213 83Z" fill="#7DA543" stroke="#70A72F" stroke-width="2"/></mask><g mask="url(#b)"><path d="m74.22 87.228 19.141-1.982c.547 4.33 2.165 7.77 4.854 10.322 2.689 2.507 5.788 3.76 9.297 3.76 4.01 0 7.405-1.618 10.185-4.853 2.78-3.282 4.17-8.203 4.17-14.766 0-6.152-1.39-10.755-4.17-13.809-2.734-3.099-6.312-4.648-10.732-4.648-5.514 0-10.46 2.438-14.834 7.314l-15.586-2.255 9.844-52.159h50.791v17.979h-36.231l-3.008 17.021c4.284-2.142 8.659-3.212 13.125-3.212 8.523 0 15.746 3.098 21.67 9.296 5.925 6.198 8.887 14.242 8.887 24.131 0 8.249-2.393 15.609-7.178 22.08-6.517 8.841-15.563 13.262-27.138 13.262-9.252 0-16.794-2.484-22.627-7.451-5.834-4.968-9.32-11.644-10.46-20.03Z" fill="#70A72F"/></g></svg>