<svg width="214" height="106" viewBox="0 0 214 106" fill="none" xmlns="http://www.w3.org/2000/svg"><mask id="a" style="mask-type:alpha" maskUnits="userSpaceOnUse" x="53" y="0" width="101" height="95"><path fill="#D9D9D9" d="M53 0h101v95H53z"/></mask><g mask="url(#a)"><path d="m139.025 37.326-18.593 2.051c-.456-3.828-1.641-6.654-3.555-8.477-1.914-1.822-4.398-2.734-7.451-2.734-4.056 0-7.497 1.823-10.323 5.469-2.78 3.646-4.534 11.233-5.263 22.763 4.785-5.65 10.732-8.476 17.842-8.476 8.02 0 14.879 3.053 20.576 9.16 5.742 6.107 8.613 13.99 8.613 23.652 0 10.254-3.008 18.48-9.023 24.678-6.016 6.198-13.741 9.297-23.174 9.297-10.117 0-18.434-3.919-24.951-11.758-6.517-7.884-9.776-20.781-9.776-38.691 0-18.366 3.395-31.605 10.186-39.717 6.79-8.112 15.609-12.168 26.455-12.168 7.611 0 13.9 2.142 18.867 6.426 5.013 4.238 8.203 10.413 9.57 18.525ZM95.481 79.231c0 6.243 1.435 11.074 4.306 14.492 2.871 3.372 6.152 5.058 9.844 5.058 3.555 0 6.517-1.39 8.887-4.17 2.369-2.78 3.554-7.337 3.554-13.672 0-6.516-1.276-11.279-3.828-14.287-2.552-3.053-5.742-4.58-9.57-4.58-3.692 0-6.813 1.459-9.365 4.375-2.552 2.871-3.828 7.132-3.828 12.784Z" fill="#70A72F"/></g><mask id="b" style="mask-type:alpha" maskUnits="userSpaceOnUse" x="0" y="60" width="214" height="46"><path d="M213 83c0 1.25-.585 2.566-1.898 3.946-1.318 1.384-3.311 2.767-5.964 4.115-5.303 2.695-13.042 5.151-22.688 7.225C163.175 102.429 136.498 105 107 105c-29.498 0-56.175-2.571-75.45-6.714-9.646-2.074-17.385-4.53-22.688-7.225-2.653-1.348-4.646-2.731-5.964-4.115C1.585 85.566 1 84.25 1 83s.585-2.566 1.898-3.946c1.318-1.384 3.31-2.767 5.964-4.115 5.303-2.695 13.042-5.151 22.688-7.225C50.825 63.571 77.502 61 107 61c29.498 0 56.175 2.57 75.45 6.714 9.646 2.074 17.385 4.53 22.688 7.225 2.653 1.348 4.646 2.731 5.964 4.115C212.415 80.434 213 81.75 213 83Z" fill="#7DA543" stroke="#70A72F" stroke-width="2"/></mask><g mask="url(#b)"><path d="m139.025 37.326-18.593 2.051c-.456-3.828-1.641-6.654-3.555-8.477-1.914-1.822-4.398-2.734-7.451-2.734-4.056 0-7.497 1.823-10.323 5.469-2.78 3.646-4.534 11.233-5.263 22.763 4.785-5.65 10.732-8.476 17.842-8.476 8.02 0 14.879 3.053 20.576 9.16 5.742 6.107 8.613 13.99 8.613 23.652 0 10.254-3.008 18.48-9.023 24.678-6.016 6.198-13.741 9.297-23.174 9.297-10.117 0-18.434-3.919-24.951-11.758-6.517-7.884-9.776-20.781-9.776-38.691 0-18.366 3.395-31.605 10.186-39.717 6.79-8.112 15.609-12.168 26.455-12.168 7.611 0 13.9 2.142 18.867 6.426 5.013 4.238 8.203 10.413 9.57 18.525ZM95.481 79.231c0 6.243 1.435 11.074 4.306 14.492 2.871 3.372 6.152 5.058 9.844 5.058 3.555 0 6.517-1.39 8.887-4.17 2.369-2.78 3.554-7.337 3.554-13.672 0-6.516-1.276-11.279-3.828-14.287-2.552-3.053-5.742-4.58-9.57-4.58-3.692 0-6.813 1.459-9.365 4.375-2.552 2.871-3.828 7.132-3.828 12.784Z" fill="#70A72F"/></g></svg>