<svg width="214" height="106" viewBox="0 0 214 106" fill="none" xmlns="http://www.w3.org/2000/svg"><mask id="a" style="mask-type:alpha" maskUnits="userSpaceOnUse" x="53" y="0" width="101" height="95"><path fill="#D9D9D9" d="M53 0h101v95H53z"/></mask><g mask="url(#a)"><path d="M73.947 31.994V14.152h65.694v13.946c-5.424 5.332-10.938 12.988-16.543 22.968-5.606 9.98-9.89 20.6-12.852 31.856-2.917 11.21-4.352 21.237-4.307 30.078H87.414c.32-13.854 3.167-27.982 8.545-42.383 5.423-14.4 12.646-27.275 21.67-38.623H73.947Z" fill="#70A72F"/></g><mask id="b" style="mask-type:alpha" maskUnits="userSpaceOnUse" x="0" y="60" width="214" height="46"><path d="M213 83c0 1.25-.585 2.566-1.898 3.946-1.318 1.384-3.311 2.767-5.964 4.115-5.303 2.695-13.042 5.151-22.688 7.225C163.175 102.429 136.498 105 107 105c-29.498 0-56.175-2.571-75.45-6.714-9.646-2.074-17.385-4.53-22.688-7.225-2.653-1.348-4.646-2.731-5.964-4.115C1.585 85.566 1 84.25 1 83s.585-2.566 1.898-3.946c1.318-1.384 3.31-2.767 5.964-4.115 5.303-2.695 13.042-5.151 22.688-7.225C50.825 63.571 77.502 61 107 61c29.498 0 56.175 2.57 75.45 6.714 9.646 2.074 17.385 4.53 22.688 7.225 2.653 1.348 4.646 2.731 5.964 4.115C212.415 80.434 213 81.75 213 83Z" fill="#7DA543" stroke="#70A72F" stroke-width="2"/></mask><g mask="url(#b)"><path d="M73.947 31.994V14.152h65.694v13.946c-5.424 5.332-10.938 12.988-16.543 22.968-5.606 9.98-9.89 20.6-12.852 31.856-2.917 11.21-4.352 21.237-4.307 30.078H87.414c.32-13.854 3.167-27.982 8.545-42.383 5.423-14.4 12.646-27.275 21.67-38.623H73.947Z" fill="#70A72F"/></g></svg>