<svg width="214" height="106" viewBox="0 0 214 106" fill="none" xmlns="http://www.w3.org/2000/svg"><mask id="a" style="mask-type:alpha" maskUnits="userSpaceOnUse" x="53" y="0" width="101" height="95"><path fill="#D9D9D9" d="M53 0h101v95H53z"/></mask><g mask="url(#a)"><path d="M90.422 58.928c-4.968-2.097-8.59-4.968-10.87-8.613-2.232-3.692-3.349-7.725-3.349-12.1 0-7.474 2.598-13.65 7.793-18.526 5.241-4.876 12.67-7.314 22.285-7.314 9.525 0 16.908 2.438 22.149 7.314 5.286 4.877 7.929 11.052 7.929 18.526 0 4.648-1.207 8.795-3.623 12.441-2.415 3.6-5.81 6.358-10.185 8.272 5.56 2.233 9.775 5.491 12.646 9.775 2.917 4.284 4.375 9.229 4.375 14.834 0 9.251-2.962 16.771-8.886 22.559-5.879 5.787-13.718 8.681-23.516 8.681-9.115 0-16.703-2.392-22.764-7.177-7.155-5.651-10.732-13.399-10.732-23.243 0-5.423 1.344-10.39 4.033-14.902 2.689-4.557 6.927-8.066 12.715-10.527Zm3.965-19.346c0 3.828 1.07 6.813 3.213 8.955 2.187 2.142 5.081 3.213 8.681 3.213 3.646 0 6.563-1.071 8.75-3.213 2.188-2.187 3.281-5.195 3.281-9.023 0-3.6-1.093-6.472-3.281-8.614-2.142-2.187-4.99-3.28-8.545-3.28-3.691 0-6.63 1.093-8.818 3.28-2.188 2.188-3.281 5.082-3.281 8.682Zm-1.778 42.93c0 5.286 1.345 9.41 4.034 12.373 2.734 2.962 6.129 4.443 10.185 4.443 3.965 0 7.246-1.413 9.844-4.238 2.598-2.871 3.896-6.996 3.896-12.373 0-4.694-1.321-8.454-3.964-11.28-2.644-2.87-5.993-4.306-10.049-4.306-4.694 0-8.203 1.618-10.528 4.853-2.278 3.236-3.418 6.745-3.418 10.528Z" fill="#70A72F"/></g><mask id="b" style="mask-type:alpha" maskUnits="userSpaceOnUse" x="0" y="60" width="214" height="46"><path d="M213 83c0 1.25-.585 2.566-1.898 3.946-1.318 1.384-3.311 2.767-5.964 4.115-5.303 2.695-13.042 5.151-22.688 7.225C163.175 102.429 136.498 105 107 105c-29.498 0-56.175-2.571-75.45-6.714-9.646-2.074-17.385-4.53-22.688-7.225-2.653-1.348-4.646-2.731-5.964-4.115C1.585 85.566 1 84.25 1 83s.585-2.566 1.898-3.946c1.318-1.384 3.31-2.767 5.964-4.115 5.303-2.695 13.042-5.151 22.688-7.225C50.825 63.571 77.502 61 107 61c29.498 0 56.175 2.57 75.45 6.714 9.646 2.074 17.385 4.53 22.688 7.225 2.653 1.348 4.646 2.731 5.964 4.115C212.415 80.434 213 81.75 213 83Z" fill="#7DA543" stroke="#70A72F" stroke-width="2"/></mask><g mask="url(#b)"><path d="M90.422 58.928c-4.968-2.097-8.59-4.968-10.87-8.613-2.232-3.692-3.349-7.725-3.349-12.1 0-7.474 2.598-13.65 7.793-18.526 5.241-4.876 12.67-7.314 22.285-7.314 9.525 0 16.908 2.438 22.149 7.314 5.286 4.877 7.929 11.052 7.929 18.526 0 4.648-1.207 8.795-3.623 12.441-2.415 3.6-5.81 6.358-10.185 8.272 5.56 2.233 9.775 5.491 12.646 9.775 2.917 4.284 4.375 9.229 4.375 14.834 0 9.251-2.962 16.771-8.886 22.559-5.879 5.787-13.718 8.681-23.516 8.681-9.115 0-16.703-2.392-22.764-7.177-7.155-5.651-10.732-13.399-10.732-23.243 0-5.423 1.344-10.39 4.033-14.902 2.689-4.557 6.927-8.066 12.715-10.527Zm3.965-19.346c0 3.828 1.07 6.813 3.213 8.955 2.187 2.142 5.081 3.213 8.681 3.213 3.646 0 6.563-1.071 8.75-3.213 2.188-2.187 3.281-5.195 3.281-9.023 0-3.6-1.093-6.472-3.281-8.614-2.142-2.187-4.99-3.28-8.545-3.28-3.691 0-6.63 1.093-8.818 3.28-2.188 2.188-3.281 5.082-3.281 8.682Zm-1.778 42.93c0 5.286 1.345 9.41 4.034 12.373 2.734 2.962 6.129 4.443 10.185 4.443 3.965 0 7.246-1.413 9.844-4.238 2.598-2.871 3.896-6.996 3.896-12.373 0-4.694-1.321-8.454-3.964-11.28-2.644-2.87-5.993-4.306-10.049-4.306-4.694 0-8.203 1.618-10.528 4.853-2.278 3.236-3.418 6.745-3.418 10.528Z" fill="#70A72F"/></g></svg>