<svg width="69" height="69" viewBox="0 0 69 69" fill="none" xmlns="http://www.w3.org/2000/svg"><path d="M37.297 32.964a.563.563 0 1 1 0-1.127.563.563 0 0 1 0 1.127Zm-1.166 2.331a.563.563 0 1 1 0-1.126.563.563 0 0 1 0 1.126Zm2.332 0a.563.563 0 1 1 0-1.126.563.563 0 0 1 0 1.126Z" fill="#7DA543"/><path d="M61.18 46.58a.82.82 0 0 0 .82-.82v-6.795a.82.82 0 0 0-.82-.82h-2.844c.653-2.637.257-5.81-1.38-7.99a6.609 6.609 0 0 1-1.192-2.666c-.444-3.218-1.61-6.603-5.302-7.235.251-.486.76-.82 1.343-.82a.82.82 0 1 0 0-1.64 3.158 3.158 0 0 0-3.067 2.422c-2.478.314-4.547 2.224-5.038 4.688l-.48 2.396a7.787 7.787 0 0 0-1.607-.341c.133-1.87-1.17-3.613-3.148-3.613a.82.82 0 1 0 0 1.64c1.081 0 1.552 1.078 1.507 1.973a7.76 7.76 0 0 0-2.982.947c-.263-.983-.423-2.003-.614-3.002a5.907 5.907 0 0 0-4.785-4.65c.252-.486.76-.819 1.343-.819a.82.82 0 1 0 0-1.64 3.158 3.158 0 0 0-3.067 2.422c-2.48.314-4.544 2.223-5.038 4.687-.196 1.175-.384 2.462-.802 3.585-1.114-.88-2.646-1.236-4.58-1.065.356-.499.772-.972 1.16-1.443a.82.82 0 1 0-1.274-1.034c-.676.757-1.47 1.752-1.858 2.66-2.66-.506-4.627-.185-6.002.977-2.504 2.115-2.552 6.76-1.245 9.56H6.82a.82.82 0 0 0-.82.821v6.794c0 .454.367.82.82.82h.88v5.192h-.88a.82.82 0 0 0-.82.82v6.794c0 .454.367.82.82.82h28.69a.82.82 0 1 0 0-1.64H7.64v-5.154h52.72v5.154H39.084a.82.82 0 1 0 0 1.64H61.18a.82.82 0 0 0 .82-.82v-6.794a.82.82 0 0 0-.82-.82h-.88V46.58h.879ZM39.972 28.61v1.73c-.508-.047-1.163.196-1.163.821 0 .453.367.82.82.82h2.332a.82.82 0 0 0 .82-.82c0-.627-.659-.87-1.168-.82V28.61a6.145 6.145 0 0 1 3.436 1.646.82.82 0 0 0 1.13-1.189 7.848 7.848 0 0 0-1.426-1.077c.559-2.506.725-5.473 3.9-6.1v1.387a.82.82 0 0 0 1.64 0V21.89c2.793.553 3.58 3.479 3.862 5.92a8.25 8.25 0 0 0 1.487 3.328c1.403 1.867 1.676 4.777.992 7.006h-8.803c.833-1.71.998-3.86.447-5.678a.82.82 0 1 0-1.57.477c.512 1.69.215 3.731-.765 5.2H35.647a6.106 6.106 0 0 1-1.028-3.412 6.185 6.185 0 0 1 5.353-6.12Zm-15.54 2.527a8.294 8.294 0 0 0 1.489-3.327c.338-2.459.952-5.345 3.861-5.92v1.388a.82.82 0 1 0 1.64 0V21.89a4.261 4.261 0 0 1 3.345 3.335c.207 1.213.41 2.518.818 3.684-2.53 2.266-3.315 6.18-1.826 9.235H23.44c-.678-2.212-.397-5.157.992-7.007Zm-11.9-1.3c.942-.796 2.457-1.012 4.508-.643-.096.73-.07 1.54-.052 2.275h-.276l-.454-.479a.82.82 0 0 0-1.19 1.13c.237.336.847.99 1.292.99h2.876c.389 0 .977-.496 1.233-.76a.82.82 0 0 0-1.029-1.279l-.494.398h-.317c-.026-.724-.059-1.584.075-2.298 2.114-.362 3.61-.095 4.54.811-1.642 2.345-2.195 5.37-1.504 8.162h-9.646c-1.32-2.087-1.68-6.519.438-8.308Zm11.705 15.938v.016c0 .453.367.82.82.82h33.604v5.155H9.339v-5.155h12.143a.82.82 0 0 0 .82-.82v-.033a.82.82 0 0 0-.82-.82H7.641v-5.154h52.718v5.154H25.057a.82.82 0 0 0-.82.837Z" fill="#7DA543"/><path d="M10.218 43.215a.82.82 0 1 1 0-1.64.82.82 0 0 1 0 1.64Zm0 13.593a.82.82 0 1 1 0-1.64.82.82 0 0 1 0 1.64Zm47.564-13.593a.82.82 0 1 1 0-1.64.82.82 0 0 1 0 1.64Zm0 13.593a.82.82 0 1 1 0-1.64.82.82 0 0 1 0 1.64Z" fill="#7DA543"/></svg>