<svg width="69" height="69" viewBox="0 0 69 69" fill="none" xmlns="http://www.w3.org/2000/svg"><path d="M65.584 16.911c-3.452-1.806-7.394-1.43-10.29.983-2.945 2.454-4.06 6.351-2.945 10.228a22.841 22.841 0 0 0-.979 2.87 22.852 22.852 0 0 0-.978-2.87c1.114-3.877 0-7.774-2.947-10.228-2.895-2.412-6.837-2.789-10.288-.983a.775.775 0 0 0 .012 1.38c.828.415 1.435 1.404 2.052 2.623a19.005 19.005 0 0 0-10.19-2.947C18.539 17.967 10 26.482 10 36.947c0 10.466 8.538 18.98 19.032 18.98a19.05 19.05 0 0 0 17.197-10.84c.264.02.533.03.81.03l.163-.002c.276.74.5 1.503.667 2.282-3.69 6.587-10.75 11.052-18.837 11.052a21.664 21.664 0 0 1-17.443-8.861.78.78 0 0 0-1.087-.17.774.774 0 0 0-.17 1.083 23.298 23.298 0 0 0 8.042 6.908A23.227 23.227 0 0 0 29.032 60c12.746 0 23.116-10.341 23.116-23.053 0-2.788.523-5.486 1.525-7.987l.224.003c2.445 0 4.408-.73 5.985-2.22 1.478-1.395 2.372-3.236 3.16-4.86.8-1.648 1.49-3.071 2.53-3.592a.776.776 0 0 0 .012-1.38Zm-19.136 2.173c1.972 1.643 2.958 4.074 2.791 6.659a23.003 23.003 0 0 0-4.272-5.495.78.78 0 0 0-1.1.027.774.774 0 0 0 .028 1.096 21.55 21.55 0 0 1 4.471 6.027c-4.36-.21-5.837-3.244-7.267-6.19-.628-1.295-1.232-2.539-2.07-3.422 2.577-.9 5.33-.441 7.419 1.298Zm-6.722 4.078c-.689 1.032-.325 2.414-.02 3.57.517 1.955.498 2.536-.616 2.893-.723.233-.992.217-1.071.2-.022-.06-.069-.245-.024-.686.16-1.584-.414-2.27-.923-2.567-.73-.425-1.747-.27-2.721.414-1.136.798-2.154 2.289-1.866 3.82.044.238.11.518.185.842.26 1.109.8 3.416.165 3.987-.247.222-.85.19-1.657-.086-1.587-.544-2.875 1.525-3.728 2.894-.1.16-.19.305-.267.423-.38.577-.857.933-1.276.954-.32.016-.638-.169-.948-.55-1.827-2.25-2.936-2.018-4.003-1.552-.503.22-.733.32-1.32-.067a.837.837 0 0 1-.025-.018c.328-.267 1.476-.949 5.21-1.768l.127-.028c2.402-.54 2.383-2.22 2.372-3.225-.005-.425-.01-.826.133-.998 1.608-1.933 1.277-3.024.8-3.975-.219-.437-.27-.564-.105-.89.408-.81.293-1.45.124-1.844-.516-1.208-2.107-1.7-3.269-2.059l-.086-.026c-.863-.268-1.471-1.264-1.875-2.247a17.436 17.436 0 0 1 5.99-1.054c3.9 0 7.643 1.284 10.694 3.643ZM11.954 33.243c.063.029.127.059.194.093 1.34.678 2.684-.931 3.574-1.996.1-.12.19-.229.268-.317.348-.396.754-.627 1.057-.599.216.02.418.179.603.474.718 1.511-.437 2.703-2.275 4.342-.159.142-.315.281-.466.418-1.698 1.546-1.45 3.013-1.287 3.984.096.572.138.882-.034 1.131-.459.663-.435 1.245-.334 1.616.302 1.116 1.645 1.745 2.533 2.161l.068.032c1.171.55 1.345.983 1.328 1.069-.058.281-.923.843-2.669.988a17.294 17.294 0 0 1-2.958-9.692c0-1.27.138-2.51.398-3.704Zm11.358 20.173c.318-1.294 1.05-1.314 1.348-1.322 1.323-.035 2.13-.287 2.618-.818.527-.573.484-1.269.453-1.777-.02-.335-.028-.561.053-.648.074-.078.426-.332 1.868-.332.897 0 1.04.35 1.277.932.17.415.402.983 1.05 1.128.717.16 1.515-.293 3.16-1.798.986-.901 1.866-1.295 2.614-1.17 1.053.175 1.943 1.383 2.639 2.578a17.505 17.505 0 0 1-17.08 3.227Zm18.243-4.312c-.881-1.447-1.993-2.765-3.546-3.024-1.244-.207-2.564.317-3.921 1.558-.947.865-1.433 1.205-1.673 1.338l-.045-.11c-.271-.664-.775-1.898-2.718-1.898-1.54 0-2.465.253-3 .82-.549.582-.506 1.29-.474 1.806.017.268.034.546-.047.634-.044.047-.32.284-1.512.315-.838.022-2.204.373-2.761 2.296a17.57 17.57 0 0 1-6.275-4.774c1.757-.316 2.915-1.075 3.124-2.106.149-.73-.11-1.806-2.19-2.78l-.069-.033c-.512-.24-1.579-.74-1.693-1.162-.021-.08.016-.19.113-.33.539-.778.4-1.604.288-2.268-.151-.897-.27-1.606.802-2.582.147-.134.299-.27.453-.407 1.664-1.484 3.943-3.517 2.622-6.212a.78.78 0 0 0-.033-.06c-.573-.948-1.303-1.2-1.816-1.246-.814-.072-1.675.337-2.365 1.122a19.91 19.91 0 0 0-.293.346c-.853 1.02-1.426 1.556-1.704 1.59a5.888 5.888 0 0 0-.466-.209 17.533 17.533 0 0 1 9.251-10.556c.703 1.71 1.659 2.761 2.849 3.13l.087.026c.721.223 2.064.638 2.297 1.185.024.055.087.203-.082.54-.521 1.034-.146 1.783.103 2.279.284.566.489.976-.606 2.292-.507.61-.499 1.351-.491 2.005.01.983.016 1.431-1.159 1.695l-.118.026c-5.457 1.197-6.354 2.223-6.512 3.069-.062.331-.04.97.804 1.526 1.292.852 2.2.456 2.8.194.363-.158.518-.213.713-.161.249.066.704.34 1.458 1.269.745.916 1.542 1.125 2.116 1.125.04 0 .08 0 .118-.003.928-.046 1.839-.648 2.5-1.652.083-.127.18-.282.288-.455.316-.509.71-1.141 1.132-1.631.525-.611.765-.614.768-.615 1.418.486 2.496.409 3.205-.23 1.315-1.184.71-3.775.308-5.49-.071-.306-.133-.57-.172-.775-.152-.813.505-1.755 1.233-2.267.51-.357.916-.415 1.041-.342.102.059.228.393.16 1.072-.063.628-.071 1.523.586 2.053.687.553 1.666.344 2.533.065 2.676-.859 2.055-3.21 1.645-4.765-.262-.99-.399-1.645-.276-2.082.525.888 1.142 1.75 1.923 2.489.256.241.523.46.799.662a17.285 17.285 0 0 1 2.759 7.76 9.07 9.07 0 0 0-.68-.628c-2.76-2.3-6.52-2.66-9.811-.937a.776.776 0 0 0 .012 1.38c.974.488 1.628 1.834 2.384 3.393.75 1.544 1.6 3.295 3.008 4.625a7.443 7.443 0 0 0 3.292 1.827 17.402 17.402 0 0 1-3.066 4.278Zm-1.833-11.406c-.588-1.21-1.153-2.375-1.931-3.215 2.418-.823 4.992-.383 6.948 1.246 1.826 1.521 2.758 3.757 2.645 6.144a17.915 17.915 0 0 0-4.473-5.143.78.78 0 0 0-1.092.132.774.774 0 0 0 .133 1.09 16.366 16.366 0 0 1 4.57 5.598c-4.065-.222-5.456-3.08-6.8-5.852Zm9.185 7.583a17.87 17.87 0 0 0-.358-.997c.682-2.378.484-4.765-.494-6.787a18.871 18.871 0 0 0-1.922-8.888c.83.235 1.731.354 2.71.354l.224-.003a21.437 21.437 0 0 1 1.525 7.987c0 2.954-.6 5.77-1.685 8.334ZM61.64 21.208c-1.43 2.946-2.904 5.986-7.267 6.19a21.55 21.55 0 0 1 4.471-6.027.774.774 0 0 0 .027-1.096.78.78 0 0 0-1.1-.027 23.004 23.004 0 0 0-4.27 5.495c-.168-2.585.818-5.015 2.79-6.659 2.088-1.74 4.842-2.198 7.42-1.298-.839.883-1.442 2.127-2.07 3.422Zm-9.044-3.836c.182.01.359.016.531.016 4.007 0 5.378-2.826 6.39-4.912.498-1.024.968-1.992 1.59-2.304a.775.775 0 0 0 .013-1.38c-2.418-1.265-5.181-1-7.212.692-2.112 1.76-2.882 4.574-2.008 7.346a.778.778 0 0 0 .696.542Zm2.31-6.698a4.774 4.774 0 0 1 3.075-1.118c.437 0 .878.059 1.315.177-.458.583-.812 1.312-1.178 2.067-.865 1.782-1.755 3.614-4.127 3.973.582-.949 1.343-1.984 2.1-2.635a.774.774 0 0 0 .083-1.094.78.78 0 0 0-1.097-.082c-.758.651-1.44 1.528-1.96 2.299.083-1.399.701-2.68 1.789-3.587Zm-13.275-.502c.622.312 1.092 1.28 1.59 2.304 1.012 2.086 2.383 4.912 6.39 4.912.172 0 .35-.006.531-.016a.777.777 0 0 0 .697-.542c.873-2.772.103-5.587-2.01-7.346-2.03-1.692-4.793-1.957-7.21-.692a.775.775 0 0 0 .012 1.38Zm6.201.502c1.176.98 1.803 2.397 1.8 3.927-.622-.959-1.392-1.953-2.18-2.629a.78.78 0 0 0-1.096.082.774.774 0 0 0 .082 1.094c.742.636 1.496 1.66 2.068 2.582-2.192-.443-3.051-2.21-3.886-3.93-.366-.755-.72-1.484-1.178-2.067 1.545-.418 3.151-.09 4.39.941Z" fill="#7DA543"/></svg>