<svg width="69" height="69" viewBox="0 0 69 69" fill="none" xmlns="http://www.w3.org/2000/svg">
  <path d="M65.5835 16.9114C62.1324 15.1052 58.1901 15.4817 55.2949 17.8936C52.3487 20.3481 51.2345 24.2453 52.3485 28.1215C51.9576 29.0607 51.6309 30.0185 51.37 30.9928C51.1091 30.0185 50.7824 29.0607 50.3915 28.1215C51.5057 24.2453 50.3915 20.3481 47.4451 17.8936C44.5499 15.4815 40.6075 15.1051 37.1565 16.9112C36.8983 17.0463 36.7376 17.3142 36.7402 17.605C36.7427 17.8958 36.9083 18.1608 37.1689 18.2913C37.9968 18.706 38.6037 19.6953 39.2211 20.9143C36.1956 18.9979 32.6775 17.9674 29.0316 17.9674C18.5377 17.9675 10 26.4818 10 36.9473C10 47.4128 18.5377 55.927 29.0319 55.927C36.3952 55.927 43.0827 51.6908 46.2287 45.0872C46.4925 45.1068 46.7621 45.1174 47.0386 45.1174C47.0925 45.1174 47.1476 45.1156 47.2021 45.1149C47.4785 45.8551 47.7014 46.6178 47.8687 47.3971C44.1799 53.9839 37.1194 58.4486 29.0319 58.4486C22.1599 58.4486 15.6393 55.1363 11.5891 49.588C11.3363 49.2417 10.8498 49.1654 10.5025 49.4175C10.1552 49.6696 10.0787 50.1547 10.3315 50.5011C12.433 53.38 15.2141 55.7687 18.3743 57.4088C21.6403 59.104 25.3257 60 29.032 60C41.7783 60 52.1481 49.6586 52.1481 36.9473C52.1481 34.159 52.6714 31.4614 53.6729 28.9598C53.7477 28.9611 53.8231 28.9632 53.8971 28.9632C56.3415 28.9632 58.3052 28.2337 59.8823 26.7439C61.3603 25.3477 62.2535 23.5074 63.0416 21.8837C63.8416 20.2353 64.5325 18.8116 65.5713 18.2914C65.8318 18.1609 65.9973 17.8959 66 17.6052C66.0025 17.3143 65.8418 17.0464 65.5836 16.9114H65.5835ZM46.4479 19.0843C48.4203 20.7275 49.4064 23.1577 49.239 25.743C48.1068 23.7122 46.6763 21.8698 44.9674 20.2476C44.6562 19.9523 44.164 19.9643 43.8678 20.2747C43.5715 20.5849 43.5837 21.076 43.8949 21.3713C45.7588 23.1408 47.2603 25.1772 48.3662 27.398C44.0067 27.1888 42.5288 24.1537 41.099 21.2077C40.4706 19.9129 39.8669 18.669 39.0289 17.7857C41.6062 16.8856 44.3598 17.3446 46.4479 19.0843ZM39.726 23.1624C39.0372 24.1944 39.401 25.5758 39.7065 26.7323C40.2227 28.6874 40.2042 29.2678 39.0898 29.6255C38.3668 29.8575 38.0984 29.8418 38.0189 29.8257C37.9968 29.7658 37.9505 29.5796 37.9947 29.1394C38.1541 27.5547 37.5807 26.8688 37.0716 26.5722C36.3419 26.1472 35.3246 26.3021 34.3506 26.9862C33.2146 27.7841 32.1971 29.2747 32.4846 30.8064C32.5292 31.0443 32.5947 31.3242 32.6705 31.6483C32.9297 32.7569 33.4692 35.0637 32.8348 35.6349C32.5882 35.8569 31.9843 35.8257 31.178 35.5494C29.5913 35.0055 28.3029 37.0744 27.4504 38.4433C27.3503 38.6038 27.2606 38.7482 27.1829 38.8661C26.8035 39.4426 26.3264 39.7992 25.9066 39.8201C25.5875 39.8358 25.269 39.651 24.9595 39.2702C23.1321 37.0209 22.0229 37.2523 20.9556 37.7178C20.4525 37.9371 20.223 38.0372 19.6367 37.6509C19.6275 37.6449 19.6188 37.639 19.6106 37.6332C19.9391 37.366 21.0872 36.6842 24.8212 35.8653L24.9476 35.8374C27.3496 35.2975 27.3308 33.6164 27.3197 32.612C27.3149 32.187 27.3105 31.7856 27.4529 31.6144C29.0605 29.6812 28.7295 28.5902 28.2527 27.6386C28.0343 27.2023 27.9838 27.0748 28.1483 26.7483C28.5556 25.9392 28.4405 25.2994 28.2722 24.9051C27.7563 23.6968 26.1653 23.2051 25.0034 22.8462L24.9174 22.8196C24.0544 22.5523 23.4457 21.556 23.0425 20.5733C24.9116 19.8911 26.9291 19.5186 29.0322 19.5186C32.9329 19.5186 36.6745 20.8029 39.7264 23.1621L39.726 23.1624ZM11.9542 33.2431C12.0171 33.2716 12.0814 33.3019 12.1479 33.3356C13.488 34.0137 14.8321 32.4046 15.7215 31.3395C15.822 31.2192 15.9123 31.111 15.9895 31.0231C16.3377 30.6267 16.7439 30.3965 17.047 30.4243C17.2626 30.4434 17.4654 30.6026 17.6502 30.8978C18.3677 32.4092 17.2132 33.6006 15.3745 35.2405C15.2161 35.3817 15.06 35.521 14.909 35.6584C13.2114 37.2037 13.4583 38.6712 13.6217 39.6425C13.7179 40.2142 13.76 40.5241 13.5875 40.7735C13.1291 41.436 13.1529 42.0178 13.2535 42.3893C13.5558 43.505 14.8988 44.134 15.7873 44.5502L15.8554 44.5821C17.0262 45.1313 17.2002 45.5649 17.1827 45.6509C17.1255 45.9325 16.2597 46.4936 14.5142 46.6393C12.6466 43.8662 11.5557 40.5316 11.5557 36.9474C11.5557 35.6766 11.694 34.4375 11.9542 33.2432V33.2431ZM23.3122 53.416C23.6299 52.1217 24.3623 52.1017 24.6602 52.094C25.9828 52.0593 26.79 51.8071 27.2777 51.2764C27.8046 50.7028 27.762 50.0074 27.7309 49.4995C27.7104 49.1642 27.703 48.9379 27.7845 48.8515C27.858 48.7734 28.2102 48.519 29.6523 48.519C30.5486 48.519 30.6918 48.8697 30.9291 49.4509C31.0985 49.8656 31.3305 50.4337 31.9791 50.579C32.6963 50.7395 33.4936 50.2861 35.1393 48.7812C36.1253 47.8797 37.0049 47.4857 37.7529 47.6107C38.8063 47.7863 39.6963 48.9937 40.3919 50.1894C37.2854 52.837 33.282 54.3758 29.0319 54.3758C27.0296 54.3758 25.1053 54.0372 23.3123 53.4161L23.3122 53.416ZM41.555 49.1043C40.6739 47.6566 39.5619 46.3393 38.0093 46.0804C36.7646 45.873 35.445 46.3968 34.0879 47.6376C33.1415 48.5029 32.6554 48.8429 32.4152 48.976C32.3993 48.9382 32.3838 48.9 32.3698 48.8656C32.0989 48.2023 31.5946 46.9675 29.6522 46.9675C28.1124 46.9675 27.1869 47.2207 26.6514 47.7883C26.103 48.3695 26.1465 49.0773 26.1782 49.594C26.1946 49.8625 26.2116 50.1402 26.1307 50.2282C26.0875 50.2753 25.8112 50.5118 24.6193 50.543C23.7811 50.565 22.4154 50.9163 21.8577 52.8385C19.4173 51.7385 17.274 50.0952 15.5831 48.0645C17.3401 47.7485 18.4977 46.9898 18.7072 45.9589C18.8557 45.2285 18.5962 44.1532 16.5174 43.1781L16.4485 43.1458C15.9361 42.9057 14.8695 42.4063 14.7553 41.9845C14.7336 41.9046 14.7715 41.7936 14.8679 41.6544C15.4066 40.876 15.2675 40.0496 15.1558 39.3857C15.0049 38.4887 14.8857 37.78 15.9576 36.8042C16.1048 36.6702 16.257 36.5345 16.4113 36.3969C18.0752 34.9128 20.3539 32.8805 19.0326 30.1852C19.0226 30.1648 19.0117 30.145 19 30.1256C18.427 29.1772 17.6965 28.9242 17.1845 28.8789C16.3702 28.8066 15.5088 29.2158 14.8192 30.0007C14.7346 30.0969 14.6359 30.2151 14.526 30.3466C13.6731 31.3679 13.1003 31.9027 12.8225 31.9374C12.6613 31.8567 12.5065 31.7877 12.3562 31.7281C13.8285 27.0599 17.2215 23.2334 21.607 21.1723C22.3101 22.8814 23.266 23.933 24.4556 24.3013L24.5426 24.3282C25.2641 24.5512 26.607 24.9661 26.8404 25.5129C26.8641 25.5684 26.927 25.7157 26.7575 26.0522C26.2367 27.0865 26.6122 27.8361 26.8607 28.3319C27.1446 28.8985 27.3496 29.3079 26.2549 30.6241C25.7481 31.2337 25.7564 31.9752 25.7637 32.6293C25.7746 33.6117 25.7797 34.06 24.6052 34.324L24.4867 34.3501C19.0299 35.5468 18.1331 36.5728 17.9754 37.4186C17.9135 37.7502 17.9357 38.3895 18.7787 38.9451C20.0708 39.7967 20.9782 39.401 21.5786 39.1391C21.9418 38.9808 22.0975 38.9259 22.2925 38.9777C22.5409 39.0439 22.9956 39.3176 23.7504 40.2467C24.4947 41.1626 25.2923 41.3724 25.8664 41.3724C25.9067 41.3724 25.946 41.3713 25.9841 41.3694C26.9118 41.3231 27.8226 40.7209 28.4832 39.7172C28.5669 39.5901 28.6638 39.4346 28.7717 39.2616C29.0882 38.7534 29.4822 38.121 29.9037 37.6307C30.4291 37.02 30.6695 37.0173 30.6722 37.0163C32.0897 37.502 33.1679 37.4248 33.8772 36.7862C35.1922 35.602 34.5863 33.0106 34.1852 31.2959C34.1137 30.9897 34.0518 30.7253 34.0134 30.521C33.861 29.7085 34.5181 28.7659 35.2462 28.2545C35.7557 27.8967 36.1616 27.8386 36.287 27.9117C36.3887 27.9709 36.5151 28.3055 36.4468 28.9844C36.3837 29.6117 36.3758 30.5069 37.0331 31.0366C37.7202 31.5903 38.6992 31.3805 39.5664 31.1021C42.2423 30.2431 41.6215 27.8926 41.2107 26.3371C40.9491 25.3467 40.812 24.692 40.9346 24.2548C41.4598 25.1434 42.0767 26.0057 42.8579 26.7436C43.1136 26.9852 43.3806 27.2046 43.657 27.4063C45.1946 29.7454 46.1336 32.3968 46.4157 35.1666C46.2018 34.948 45.9762 34.7375 45.7367 34.5381C42.9755 32.2377 39.2158 31.8784 35.9249 33.6008C35.6667 33.7359 35.506 34.0037 35.5085 34.2946C35.5111 34.5854 35.6767 34.8503 35.9372 34.9809C36.9115 35.4688 37.5648 36.815 38.3213 38.3736C39.071 39.9182 39.9207 41.6688 41.3291 42.9994C42.2741 43.892 43.3642 44.4982 44.6215 44.826C43.8103 46.421 42.7724 47.8583 41.5549 49.104L41.555 49.1043ZM39.7217 37.6979C39.1339 36.4871 38.569 35.323 37.791 34.4834C40.2085 33.6603 42.7834 34.0995 44.7394 35.7291C46.565 37.2501 47.4968 39.4856 47.3842 41.8734C46.2446 39.904 44.7315 38.1527 42.9111 36.73C42.573 36.4657 42.0841 36.5249 41.8191 36.8621C41.554 37.1993 41.6134 37.6869 41.9515 37.9511C43.887 39.4639 45.4427 41.383 46.5218 43.5502C42.457 43.3284 41.0665 40.4691 39.7216 37.6982L39.7217 37.6979ZM48.9067 45.2806C48.797 44.9445 48.6776 44.6121 48.5485 44.2839C49.2307 41.9055 49.0326 39.5192 48.0549 37.4966C48.0601 37.3133 48.0637 37.1295 48.0637 36.9474C48.0637 34.0311 47.4012 31.1904 46.1326 28.6083C46.9634 28.8443 47.8641 28.9635 48.8432 28.9635C48.9171 28.9635 48.9924 28.9614 49.0673 28.96C50.0688 31.4615 50.5922 34.1591 50.5922 36.9475C50.5922 39.9008 49.9917 42.7167 48.9067 45.2807V45.2806ZM61.6411 21.2079C60.2111 24.1541 58.7368 27.1939 54.3737 27.3988C55.4796 25.1777 56.9813 23.141 58.8453 21.3714C59.1564 21.076 59.1686 20.5849 58.8724 20.2748C58.5762 19.9644 58.0838 19.9523 57.7728 20.2477C56.0639 21.8699 54.6335 23.7124 53.5013 25.7431C53.3339 23.1578 54.32 20.7277 56.2923 19.0844C58.3805 17.3449 61.1339 16.8858 63.7114 17.786C62.8733 18.6694 62.2696 19.9132 61.6412 21.208L61.6411 21.2079ZM52.5968 17.3717C52.7791 17.3824 52.9558 17.3876 53.1282 17.3876C57.1345 17.3876 58.5063 14.5621 59.5188 12.476C60.016 11.4516 60.4856 10.4839 61.1083 10.1721C61.3689 10.0416 61.5345 9.7766 61.537 9.48582C61.5396 9.19494 61.3789 8.9271 61.1207 8.79202C58.703 7.52686 55.94 7.79192 53.9094 9.48361C51.7973 11.2433 51.0274 14.0582 51.9005 16.8298C51.9973 17.137 52.2744 17.3526 52.5968 17.3717ZM54.9068 10.6743C55.7958 9.93373 56.8737 9.55608 57.9823 9.55608C58.4189 9.55608 58.8603 9.6147 59.2966 9.73272C58.8392 10.3156 58.4849 11.0454 58.1186 11.8002C57.254 13.5816 56.3638 15.4145 53.9916 15.7726C54.5737 14.824 55.3345 13.7891 56.0927 13.1383C56.4182 12.8588 56.455 12.3691 56.1748 12.0443C55.8945 11.7195 55.4034 11.6829 55.0778 11.9624C54.3197 12.6131 53.6389 13.4896 53.1174 14.2606C53.2011 12.8622 53.819 11.5805 54.9068 10.6743ZM41.6317 10.1721C42.2544 10.4839 42.724 11.4516 43.2213 12.476C44.2339 14.5623 45.605 17.3876 49.6118 17.3876C49.7839 17.3876 49.9613 17.3824 50.1433 17.3717C50.4656 17.3527 50.7428 17.1371 50.8395 16.8298C51.7126 14.0582 50.9429 11.2433 48.8306 9.48361C46.8001 7.79181 44.0369 7.52686 41.6194 8.79202C41.3611 8.9271 41.2005 9.19494 41.203 9.48582C41.2056 9.7766 41.3711 10.0416 41.6317 10.1721ZM47.8332 10.6743C49.0088 11.6537 49.6356 13.0714 49.6321 14.6012C49.0109 13.6423 48.2409 12.6478 47.4539 11.9722C47.1283 11.6927 46.6372 11.7293 46.3569 12.054C46.0768 12.3787 46.1135 12.8685 46.439 13.148C47.1805 13.7844 47.9346 14.8074 48.5069 15.7301C46.3148 15.2872 45.456 13.5197 44.6215 11.8002C44.2551 11.0454 43.901 10.3156 43.4434 9.73272C44.9877 9.31495 46.5942 9.64207 47.8332 10.6743Z" fill="#7DA543" />
</svg>
