<svg width="69" height="69" viewBox="0 0 69 69" fill="none" xmlns="http://www.w3.org/2000/svg">
  <path d="M37.297 32.9635C36.986 32.9635 36.7339 32.7114 36.7339 32.4004C36.7339 32.0895 36.986 31.8373 37.297 31.8373C37.6079 31.8373 37.8601 32.0895 37.8601 32.4004C37.8601 32.7114 37.6079 32.9635 37.297 32.9635Z" fill="#7DA543" />
  <path d="M36.1311 35.2954C35.8201 35.2954 35.568 35.0433 35.568 34.7323C35.568 34.4214 35.8201 34.1693 36.1311 34.1693C36.442 34.1693 36.6941 34.4214 36.6941 34.7323C36.6941 35.0433 36.442 35.2954 36.1311 35.2954Z" fill="#7DA543" />
  <path d="M38.4629 35.2954C38.1519 35.2954 37.8998 35.0433 37.8998 34.7323C37.8998 34.4214 38.1519 34.1693 38.4629 34.1693C38.7739 34.1693 39.026 34.4214 39.026 34.7323C39.026 35.0433 38.7739 35.2954 38.4629 35.2954Z" fill="#7DA543" />
  <path d="M61.1797 46.5797C61.6328 46.5797 62 46.2125 62 45.7594V38.965C62 38.512 61.6328 38.1447 61.1797 38.1447H58.3364C58.9893 35.508 58.5926 32.3351 56.9551 30.1546C56.3593 29.3549 55.9623 28.4665 55.7639 27.4893C55.3197 24.2715 54.1545 20.8863 50.4617 20.254C50.7134 19.768 51.2211 19.4349 51.805 19.4349C52.2582 19.4349 52.6254 19.0677 52.6254 18.6146C52.6254 18.1616 52.2582 17.7943 51.805 17.7943C50.3181 17.7943 49.0684 18.8292 48.7382 20.2165C46.2597 20.5301 44.1912 22.4402 43.6998 24.9037L43.2203 27.3C42.701 27.1308 42.1627 27.016 41.6128 26.9588C41.7456 25.0898 40.4424 23.3463 38.465 23.3463C38.0119 23.3463 37.6447 23.7136 37.6447 24.1666C37.6447 24.6196 38.0119 24.9869 38.465 24.9869C39.5461 24.9869 40.0166 26.0642 39.9722 26.9594C38.8993 27.072 37.8904 27.4026 36.9905 27.9059C36.7266 26.9229 36.5667 25.9028 36.376 24.9039C35.8934 22.4901 33.9552 20.6588 31.5909 20.2542C31.8426 19.7681 32.3503 19.435 32.9342 19.435C33.3874 19.435 33.7546 19.0678 33.7546 18.6147C33.7546 18.1617 33.3874 17.7944 32.9342 17.7944C31.4473 17.7944 30.1976 18.8293 29.8674 20.2166C27.387 20.5308 25.3231 22.4397 24.8292 24.9038C24.6332 26.0787 24.4449 27.3658 24.0275 28.4888C22.913 27.6095 21.3807 27.2531 19.4477 27.4236C19.8028 26.9254 20.2187 26.4518 20.6071 25.9812C20.8926 25.6295 20.8389 25.1128 20.487 24.8273C20.1352 24.5417 19.6185 24.5957 19.3333 24.9474C18.6565 25.7043 17.8625 26.6986 17.4749 27.6068C14.8155 27.1008 12.8485 27.4219 11.4727 28.584C8.9692 30.6986 8.92108 35.3432 10.2283 38.1448H6.82031C6.36717 38.1448 6 38.5121 6 38.9652V45.7595C6 46.2126 6.36717 46.5798 6.82031 46.5798H7.69859V51.7708H6.82031C6.36717 51.7708 6 52.1381 6 52.5911V59.3855C6 59.8385 6.36717 60.2058 6.82031 60.2058H35.5094C35.9625 60.2058 36.3297 59.8385 36.3297 59.3855C36.3297 58.9324 35.9625 58.5652 35.5094 58.5652H7.64062V53.4114H60.3594V58.5652H39.0848C38.6317 58.5652 38.2645 58.9324 38.2645 59.3855C38.2645 59.8385 38.6317 60.2058 39.0848 60.2058H61.1797C61.6328 60.2058 62 59.8385 62 59.3855V52.5911C62 52.1381 61.6328 51.7708 61.1797 51.7708H60.3014V46.5798H61.1797V46.5797ZM39.9723 28.6114V30.3419C39.4642 30.2939 38.8085 30.537 38.8085 31.1622C38.8085 31.6153 39.1756 31.9825 39.6288 31.9825H41.9608C42.4139 31.9825 42.7811 31.6153 42.7811 31.1622C42.7811 30.5353 42.122 30.2928 41.6128 30.3419V28.6108C42.907 28.7822 44.103 29.3573 45.0491 30.2572C45.3773 30.5693 45.8965 30.5564 46.2089 30.2281C46.521 29.8998 46.508 29.3805 46.1798 29.0682C45.742 28.6517 45.2631 28.2915 44.7531 27.9911C45.3116 25.4848 45.4777 22.5184 48.6527 21.8911V23.2784C48.6527 23.7314 49.0199 24.0987 49.4731 24.0987C49.9262 24.0987 50.2934 23.7314 50.2934 23.2784V21.891C53.0863 22.444 53.8729 25.3695 54.1549 27.8104C54.4025 29.0307 54.8983 30.1401 55.6423 31.1386C57.0448 33.006 57.3185 35.9163 56.6345 38.1447H47.8307C48.6643 36.4345 48.8287 34.2857 48.2775 32.4675C48.1459 32.034 47.6881 31.7888 47.2544 31.9205C46.8208 32.0519 46.5759 32.51 46.7073 32.9435C47.2198 34.6337 46.923 36.6752 45.9428 38.1447H35.6466C34.9729 37.1347 34.6188 35.963 34.6188 34.7322C34.6191 31.6058 36.9545 29.0145 39.9723 28.6114ZM24.4328 31.1384C25.1645 30.1635 25.6802 29.0122 25.9209 27.8111C26.259 25.3521 26.8726 22.4664 29.7822 21.8912V23.2785C29.7822 23.7315 30.1493 24.0988 30.6025 24.0988C31.0556 24.0988 31.4228 23.7315 31.4228 23.2785V21.891C33.0794 22.2189 34.4266 23.5207 34.7673 25.2255C34.9745 26.4387 35.1768 27.7439 35.5848 28.9103C33.055 31.1763 32.2701 35.0909 33.7589 38.1447H23.4414C22.7627 35.9333 23.0437 32.9885 24.4328 31.1384ZM12.5318 29.8373C13.4738 29.0417 14.9885 28.8262 17.0401 29.1949C16.9437 29.9254 16.9699 30.7341 16.9885 31.4697H16.7122L16.2578 30.9911C15.9459 30.6625 15.4266 30.649 15.0981 30.9608C14.7695 31.2727 14.756 31.7919 15.068 32.1205C15.3047 32.4566 15.915 33.1103 16.3599 33.1103H19.2357C19.6245 33.1103 20.213 32.6152 20.4689 32.3505C20.8218 32.0664 20.8776 31.5501 20.5937 31.1971C20.3097 30.8442 19.7934 30.7883 19.4403 31.0723L18.9465 31.4697H18.6291C18.6033 30.7455 18.5705 29.886 18.7043 29.1723C20.8185 28.8098 22.3137 29.0766 23.2443 29.9832C21.6019 32.3277 21.0487 35.3535 21.7397 38.1447H12.094C10.7731 36.0583 10.4136 31.6263 12.5318 29.8373ZM24.2374 45.7758C24.2373 45.7813 24.2372 45.7868 24.2372 45.7922C24.2372 46.2453 24.6044 46.6125 25.0575 46.6125H58.6608V51.7674H9.33922V46.6125H21.482C21.9352 46.6125 22.3023 46.2453 22.3023 45.7922C22.3023 45.7868 22.3022 45.7813 22.3021 45.7758C22.3022 45.7704 22.3023 45.7649 22.3023 45.7594C22.3023 45.3064 21.9352 44.9391 21.482 44.9391H7.64062V39.7854H60.3594V44.9391H25.0575C24.6044 44.9391 24.2372 45.3064 24.2372 45.7594C24.2372 45.7649 24.2373 45.7704 24.2374 45.7758Z" fill="#7DA543" />
  <path d="M10.2179 43.2154C9.76486 43.2154 9.39758 42.8481 9.39758 42.3951C9.39758 41.942 9.76486 41.5747 10.2179 41.5747C10.6709 41.5747 11.0382 41.942 11.0382 42.3951C11.0382 42.8481 10.6709 43.2154 10.2179 43.2154Z" fill="#7DA543" />
  <path d="M10.2179 56.8084C9.76486 56.8084 9.39758 56.4411 9.39758 55.9881C9.39758 55.535 9.76486 55.1678 10.2179 55.1678C10.6709 55.1678 11.0382 55.535 11.0382 55.9881C11.0382 56.4411 10.6709 56.8084 10.2179 56.8084Z" fill="#7DA543" />
  <path d="M57.7821 43.2154C57.3291 43.2154 56.9618 42.8481 56.9618 42.3951C56.9618 41.942 57.3291 41.5747 57.7821 41.5747C58.2351 41.5747 58.6024 41.942 58.6024 42.3951C58.6024 42.8481 58.2351 43.2154 57.7821 43.2154Z" fill="#7DA543" />
  <path d="M57.7821 56.8084C57.3291 56.8084 56.9618 56.4411 56.9618 55.9881C56.9618 55.535 57.3291 55.1678 57.7821 55.1678C58.2351 55.1678 58.6024 55.535 58.6024 55.9881C58.6024 56.4411 58.2351 56.8084 57.7821 56.8084Z" fill="#7DA543" />
</svg>
